<svg version="1.2" baseProfile="tiny-ps" xmlns="http://www.w3.org/2000/svg" viewBox="0 0 363 512" width="363" height="512">
	<title>CSS3_logo_and_wordmark-svg</title>
	<style>
		tspan { white-space:pre }
		.shp0 { fill: #ffdd2d } 
		.shp1 { fill: #fbea93 } 
		.shp2 { fill: #000000 } 
		.shp3 { fill: #2b2b2b } 
	</style>
	<g id="layer1">
		<g id="g3013">
			<path id="polygon2989" class="shp0" d="M362.73 100.62L329.69 470.82L181.14 512L33.01 470.88L0 100.62L362.73 100.62Z" />
			<path id="polygon2991" class="shp1" d="M181.37 480.52L181.37 130.89L329.64 130.89L301.4 447.25L181.37 480.52Z" />
			<path id="polygon2993" class="shp2" d="M181.37 268.22L181.37 313.63L79.75 313.63L75.68 268.22L181.37 268.22Z" />
			<path id="polygon2995" class="shp2" d="M181.37 221.72L71.63 221.72L67.5 176.31L181.21 176.31L181.37 176.31L181.37 221.72Z" />
			<path id="polygon2997" class="shp2" d="M181.16 433.46L88.14 407.63L81.78 336.33L102.79 336.33L127.36 336.33L130.59 372.55L181.17 386.21L181.37 386.15L181.37 433.4L181.16 433.46Z" />
			<path id="path2999" class="shp0" d="M85.37 0L140.37 0L140.37 23L108.37 23L108.37 46L140.37 46L140.37 69L85.37 69L85.37 0Z" />
			<path id="path3001" class="shp0" d="M151.37 0L206.37 0L206.37 20L174.37 20L174.37 24L206.37 24L206.37 70L151.37 70L151.37 49L183.37 49L183.37 45L151.37 45L151.37 0Z" />
			<path id="path3003" class="shp0" d="M217.37 0L272.37 0L272.37 20L240.37 20L240.37 24L272.37 24L272.37 70L217.37 70L217.37 49L249.37 49L249.37 45L217.37 45L217.37 0Z" />
			<path id="polygon3005" class="shp3" d="M181.21 313.63L181.21 268.22L241.07 268.22L245.2 221.72L181.21 221.72L181.21 176.31L294.96 176.31L286.77 268.22L285.66 280.41L274.99 399.96L274.3 407.63L181.21 433.44L181.21 386.19L231.86 372.52L237.13 313.63L181.21 313.63Z" />
		</g>
	</g>
</svg>