<svg version="1.2" baseProfile="tiny-ps" xmlns="http://www.w3.org/2000/svg" viewBox="0 0 1224 1584" width="1224" height="1584">
	<title>Git-Icon-Black-ai</title>
	<style>
		tspan { white-space:pre }
		.shp0 { fill: #ffdd2d } 
	</style>
	<g id="Layer 1">
		<g id="&lt;Group&gt;">
			<path id="&lt;Path&gt;" class="shp0" d="M1189.37 847.87L667.88 1369.36C637.67 1399.54 588.75 1399.54 558.58 1369.36L34.62 845.44C4.44 815.26 4.44 766.32 34.62 736.11L393.88 376.88L529.94 512.95C515.99 546.36 522.53 586.29 549.73 613.48C558.63 622.41 568.89 629.06 579.86 633.55L579.86 963.02C568.89 967.51 558.61 974.22 549.73 983.09C513.82 1018.99 513.82 1077.19 549.73 1113.15C585.62 1149.06 643.85 1149.06 679.77 1113.15C715.68 1077.19 715.68 1018.99 679.77 983.09C672.47 975.81 664.21 970.03 655.46 965.7L655.46 639.25L779.53 763.3C765.83 796.58 772.51 836.28 799.52 863.32C835.48 899.25 893.67 899.25 929.61 863.32C965.52 827.38 965.52 769.18 929.61 733.28C903.9 707.53 866.79 700.36 834.6 711.46L701.58 578.45C712.68 546.26 705.48 509.16 679.77 483.44C654.21 457.88 617.43 450.61 585.35 461.44L447.35 323.43L556.13 214.62C586.33 184.44 635.27 184.44 665.43 214.62L1189.37 738.54C1219.56 768.72 1219.56 817.68 1189.37 847.87Z" />
		</g>
	</g>
</svg>