<svg version="1.2" baseProfile="tiny-ps" xmlns="http://www.w3.org/2000/svg" viewBox="0 0 512 512" width="512" height="512">
	<title>HTML5_1Color_Black-svg</title>
	<style>
		tspan { white-space:pre }
		.shp0 { fill: #ffdd2d } 
		.shp1 { opacity: 0.8;fill: #ffdd2d } 
		.shp2 { fill: #231f20 } 
	</style>
	<g id="Layer">
		<g id="Layer">
			<path id="Layer" class="shp0" d="M119.39 20.31L140.69 20.31L140.69 41.36L160.17 41.36L160.17 20.31L181.47 20.31L181.47 84.04L160.17 84.04L160.17 62.7L140.69 62.7L140.69 84.04L119.39 84.04L119.39 20.31Z" />
			<path id="Layer" class="shp0" d="M209.48 41.44L190.73 41.44L190.73 20.31L249.54 20.31L249.54 41.45L230.78 41.45L230.78 84.04L209.48 84.04L209.48 41.44L209.48 41.44Z" />
			<path id="Layer" class="shp0" d="M258.88 20.31L281.09 20.31L294.75 42.7L308.4 20.31L330.62 20.31L330.62 84.04L309.41 84.04L309.41 52.45L294.75 75.11L294.38 75.11L279.72 52.45L279.72 84.04L258.88 84.04L258.88 20.31Z" />
			<path id="Layer" class="shp0" d="M341.22 20.31L362.53 20.31L362.53 62.98L392.48 62.98L392.48 84.04L341.22 84.04L341.22 20.31Z" />
		</g>
		<path id="Layer" fill-rule="evenodd" class="shp0" d="M88.69 111.98L423.32 111.98L392.81 453.74L255.92 491.69L119.16 453.72L88.69 111.98ZM392.77 139.93L256 139.93L256 181.84L151.03 181.84L162.33 308.59L256 308.59L256 375.56L255.94 375.58L209.26 362.97L206.15 328.06L164.07 328.06L170.07 395.36L255.93 419.19L256 419.17L256 462.67L366.69 431.98L392.77 139.93ZM196.83 223.76L256 223.76L256 266.68L200.66 266.68L196.83 223.76Z" />
		<path id="Layer" fill-rule="evenodd" class="shp1" d="M256 139.93L392.77 139.93L366.69 431.98L256 462.67L256 419.17L341.91 395.36L353.41 266.68L256 266.68L256 223.76L357.22 223.76L360.98 181.84L256 181.84L256 139.93ZM302.73 362.95L256 375.56L256 308.59L307.59 308.59L302.73 362.95Z" />
		<g id="Layer" style="opacity: 0.2">
			<path id="Layer" class="shp2" d="M256 223.76L196.83 223.76L200.66 266.68L256 266.68L256 308.59L162.33 308.59L151.03 181.84L256 181.84L256 223.76Z" />
			<path id="Layer" class="shp2" d="M256 419.17L255.93 419.19L170.07 395.36L164.07 328.06L206.15 328.06L209.26 362.98L255.94 375.58L256 375.56L256 419.17Z" />
		</g>
	</g>
</svg>