<svg version="1.2" baseProfile="tiny-ps" xmlns="http://www.w3.org/2000/svg" viewBox="0 0 512 512" width="512" height="512">
	<title>ts-svg</title>
	<style>
		tspan { white-space:pre }
		.shp0 { fill: #ffdd2d } 
		.shp1 { fill: #323330 } 
	</style>
	<path id="Layer" class="shp0" d="M0 50C0 22.39 22.39 0 50 0L462 0C489.61 0 512 22.39 512 50L512 462C512 489.61 489.61 512 462 512L50 512C22.39 512 0 489.61 0 462L0 50Z" />
	<path id="Layer" class="shp1" d="M467.49 392.16C471.42 414.12 466.53 428.37 465.79 430.49C447.6 492.69 346.23 494.71 305.72 453.62C297.16 443.94 291.79 438.89 286.69 427.73C308.22 415.34 308.22 415.34 329.16 403.22C340.54 420.71 351.07 430.33 369.99 434.27C395.67 437.4 421.5 428.58 415.71 401.31C409.75 379.03 363.13 373.61 331.4 349.8C299.18 328.16 291.63 275.58 318.11 245.55C326.93 234.44 341.98 226.14 357.76 222.16C363.24 221.47 368.77 220.72 374.24 220.03C405.87 219.39 425.65 227.74 440.16 243.95C444.2 248.05 447.5 252.46 453.66 262.03C436.81 272.77 436.87 272.66 412.73 288.29C407.57 277.18 399.02 270.21 389.98 267.18C375.94 262.93 358.24 267.56 354.57 282.39C353.3 286.96 353.56 291.21 355.58 298.76C361.27 311.73 380.36 317.37 397.47 325.23C446.75 345.22 463.39 366.65 467.49 392.16L467.49 392.16ZM258.04 367.34C258.14 396.74 260.69 423.32 248.79 445.27C240.55 462.02 224.81 473.02 206.58 478.34C178.56 484.77 151.77 481.1 131.83 469.14C118.49 460.95 108.07 448.35 101 433.84C115.19 425.18 129.33 416.46 143.53 407.79C143.9 407.95 145.02 409.97 146.51 412.58C151.93 421.67 156.61 428.1 165.8 432.62C174.84 435.7 194.67 437.67 202.32 421.77C207 413.69 205.51 387.33 205.51 358.57C205.51 313.38 205.73 268.51 205.73 223.33L258.04 223.33C258.04 271.44 258.3 319.39 258.04 367.34Z" />
</svg>