<svg version="1.2" baseProfile="tiny-ps" xmlns="http://www.w3.org/2000/svg" viewBox="0 0 512 512" width="512" height="512">
	<title>js-svg</title>
	<style>
		tspan { white-space:pre }
		.shp0 { fill: #ffdd2d } 
	</style>
	<path id="Layer" class="shp0" d="M461.3 302.68C465.72 327.39 460.22 343.42 459.39 345.8C438.92 415.78 324.88 418.05 279.31 371.82C269.68 360.93 263.64 355.25 257.9 342.7C282.12 328.76 282.12 328.76 305.68 315.12C318.48 334.8 330.33 345.62 351.61 350.05C380.5 353.58 409.56 343.65 403.05 312.97C396.34 287.91 343.9 281.81 308.2 255.03C271.95 230.68 263.46 171.53 293.25 137.75C303.17 125.25 320.1 115.91 337.85 111.43C344.02 110.66 350.24 109.81 356.39 109.04C391.98 108.32 414.23 117.71 430.55 135.95C435.1 140.56 438.81 145.52 445.74 156.29C426.78 168.37 426.85 168.24 399.69 185.83C393.89 173.33 384.27 165.49 374.1 162.08C358.31 157.3 338.39 162.51 334.27 179.19C332.84 184.33 333.13 189.11 335.4 197.61C341.8 212.2 363.28 218.54 382.53 227.38C437.97 249.87 456.69 273.98 461.3 302.68L461.3 302.68ZM225.67 274.76C225.78 307.83 228.65 337.74 215.26 362.43C205.99 381.27 188.29 393.65 167.78 399.63C136.25 406.87 106.12 402.74 83.68 389.28C68.68 380.07 56.95 365.89 49 349.57C64.96 339.83 80.87 330.02 96.85 320.26C97.26 320.44 98.52 322.72 100.2 325.65C106.3 335.88 111.56 343.11 121.9 348.2C132.07 351.66 154.38 353.88 162.98 335.99C168.25 326.9 166.57 297.25 166.57 264.89C166.57 214.05 166.82 163.58 166.82 112.75L225.67 112.75C225.67 166.87 225.96 220.82 225.67 274.76Z" />
</svg>