<svg version="1.2" baseProfile="tiny-ps" xmlns="http://www.w3.org/2000/svg" viewBox="0 0 512 512" width="512" height="512">
	<title>ts-svg</title>
	<style>
		tspan { white-space:pre }
		.shp0 { fill: #ffdd2d } 
	</style>
	<path id="Layer" fill-rule="evenodd" class="shp0" d="M282.68 319.7C293.43 328.73 305.11 335.5 317.72 340C330.32 344.51 343.06 346.76 355.91 346.76C363.45 346.76 370.03 346.09 375.66 344.72C381.28 343.37 385.98 341.49 389.75 339.07C393.51 336.67 396.33 333.83 398.18 330.56C400.04 327.27 400.96 323.72 400.96 319.89C400.96 314.71 399.48 310.07 396.51 306C393.55 301.92 389.5 298.16 384.37 294.7C379.24 291.24 373.15 287.9 366.11 284.69C359.06 281.48 351.46 278.19 343.31 274.87C322.54 266.22 307.06 255.65 296.86 243.18C286.66 230.69 281.56 215.62 281.56 197.95C281.56 184.11 284.35 172.21 289.9 162.28C295.47 152.32 303.04 144.14 312.61 137.72C322.2 131.3 333.28 126.57 345.9 123.54C358.51 120.52 371.86 119 385.94 119C399.79 119 412.05 119.83 422.75 121.5C433.44 123.17 443.29 125.73 452.32 129.19L452.32 184.61C447.86 181.51 443.02 178.8 437.76 176.46C432.51 174.11 427.11 172.16 421.54 170.62C415.97 169.08 410.45 167.93 404.94 167.18C399.45 166.45 394.22 166.08 389.28 166.08C382.48 166.08 376.3 166.72 370.74 168.02C365.18 169.31 360.48 171.14 356.65 173.48C352.82 175.84 349.86 178.65 347.75 181.92C345.65 185.2 344.6 188.87 344.6 192.95C344.6 197.39 345.77 201.38 348.12 204.9C350.47 208.42 353.8 211.76 358.14 214.91C362.46 218.06 367.71 221.14 373.89 224.17C380.08 227.19 387.06 230.32 394.84 233.53C405.48 237.98 415.03 242.7 423.48 247.71C431.95 252.71 439.22 258.36 445.27 264.67C451.34 270.97 455.97 278.17 459.18 286.26C462.39 294.35 464 303.77 464 314.52C464 329.35 461.19 341.8 455.57 351.87C449.94 361.94 442.31 370.09 432.67 376.33C423.02 382.56 411.8 387.04 399.01 389.77C386.23 392.48 372.72 393.84 358.51 393.84C343.92 393.84 330.05 392.61 316.88 390.13C303.72 387.66 292.32 383.96 282.68 379.01L282.68 319.7ZM182.98 390.29L122.71 390.29L122.71 173.59L47 173.59L47 124.92L259.05 124.92L259.05 173.59L182.98 173.59L182.98 390.29Z" />
</svg>