<svg version="1.2" baseProfile="tiny-ps" xmlns="http://www.w3.org/2000/svg" viewBox="0 0 512 512" width="512" height="512">
	<title>ts-svg</title>
	<style>
		tspan { white-space:pre }
		.shp0 { fill: #ffdd2d } 
		.shp1 { fill: #ffffff } 
	</style>
	<path id="Layer" class="shp0" d="M0 50C0 22.39 22.39 0 50 0L462 0C489.61 0 512 22.39 512 50L512 462C512 489.61 489.61 512 462 512L50 512C22.39 512 0 489.61 0 462L0 50Z" />
	<path id="Layer" class="shp0" d="M0 50C0 22.39 22.39 0 50 0L462 0C489.61 0 512 22.39 512 50L512 462C512 489.61 489.61 512 462 512L50 512C22.39 512 0 489.61 0 462L0 50Z" />
	<path id="Layer" fill-rule="evenodd" class="shp1" d="M316.94 407.42C326.02 415.04 335.88 420.75 346.52 424.55C357.16 428.36 367.91 430.26 378.76 430.26C385.12 430.26 390.68 429.69 395.43 428.54C400.17 427.4 404.14 425.81 407.32 423.77C410.5 421.74 412.88 419.34 414.44 416.58C416.01 413.81 416.79 410.81 416.79 407.58C416.79 403.2 415.54 399.29 413.03 395.85C410.53 392.41 407.11 389.23 402.78 386.31C398.45 383.39 393.31 380.57 387.37 377.86C381.42 375.15 375 372.38 368.12 369.57C350.59 362.27 337.52 353.35 328.91 342.82C320.3 332.28 316 319.56 316 304.64C316 292.96 318.35 282.92 323.04 274.53C327.74 266.13 334.13 259.22 342.21 253.8C350.3 248.38 359.66 244.39 370.31 241.83C380.95 239.28 392.22 238 404.11 238C415.8 238 426.15 238.7 435.18 240.11C444.2 241.52 452.52 243.68 460.14 246.6L460.14 293.38C456.38 290.77 452.29 288.48 447.85 286.5C443.42 284.52 438.86 282.87 434.16 281.57C429.46 280.27 424.8 279.3 420.15 278.67C415.51 278.05 411.1 277.74 406.93 277.74C401.19 277.74 395.97 278.28 391.28 279.38C386.58 280.47 382.62 282.01 379.38 283.99C376.15 285.98 373.65 288.35 371.87 291.11C370.1 293.88 369.21 296.98 369.21 300.42C369.21 304.17 370.2 307.54 372.18 310.51C374.17 313.48 376.98 316.3 380.64 318.96C384.29 321.62 388.72 324.22 393.94 326.78C399.16 329.33 405.05 331.97 411.62 334.68C420.6 338.43 428.66 342.42 435.8 346.65C442.95 350.87 449.08 355.64 454.19 360.96C459.31 366.28 463.22 372.36 465.93 379.19C468.64 386.02 470 393.97 470 403.04C470 415.56 467.63 426.07 462.88 434.57C458.13 443.07 451.69 449.95 443.55 455.22C435.41 460.48 425.94 464.26 415.14 466.56C404.35 468.85 392.95 470 380.95 470C368.64 470 356.93 468.96 345.81 466.87C334.7 464.78 325.08 461.66 316.94 457.48L316.94 407.42ZM232.78 467L181.91 467L181.91 284.08L118 284.08L118 243L297 243L297 284.08L232.78 284.08L232.78 467Z" />
</svg>